<?xml version="1.0" standalone="no"?>
<!DOCTYPE svg PUBLIC "-//W3C//DTD SVG 20010904//EN"
 "http://www.w3.org/TR/2001/REC-SVG-20010904/DTD/svg10.dtd">
<svg version="1.0" xmlns="http://www.w3.org/2000/svg"
 width="1500.000000pt" height="500.000000pt" viewBox="0 0 1500.000000 500.000000"
 preserveAspectRatio="xMidYMid meet">

<g transform="translate(0.000000,500.000000) scale(0.100000,-0.100000)"
fill="#000000" stroke="none">
<path d="M693 4243 c-170 -244 -232 -343 -299 -479 -93 -189 -127 -311 -145
-507 -17 -188 8 -504 54 -681 l13 -50 104 -41 c220 -88 376 -172 564 -303 533
-373 918 -937 1074 -1572 8 -35 9 -34 27 40 63 258 204 575 363 814 306 462
773 836 1283 1028 l88 33 10 45 c61 262 77 637 35 837 -49 238 -160 459 -412
818 -128 183 -142 201 -142 186 0 -7 25 -109 55 -227 30 -119 60 -255 66 -302
16 -121 6 -344 -20 -458 -72 -317 -249 -595 -496 -779 -100 -74 -842 -585
-850 -585 -8 0 -748 510 -850 585 -76 56 -204 183 -258 255 -172 230 -267 519
-267 815 0 144 12 213 83 498 30 119 54 217 53 217 -1 0 -61 -84 -133 -187z"/>
<path d="M2005 3968 c-131 -400 -306 -667 -609 -927 l-39 -33 33 -27 c133
-105 354 -272 361 -274 6 -1 77 108 158 243 81 135 152 245 157 245 5 0 75
-110 156 -245 81 -135 152 -244 159 -242 18 4 390 295 387 302 -2 3 -41 40
-88 81 -179 159 -342 375 -441 584 -28 60 -78 190 -111 290 -33 99 -61 181
-62 182 -1 1 -29 -79 -61 -179z"/>
<path d="M5520 3969 c-261 -29 -393 -116 -451 -297 -27 -85 -38 -339 -19 -451
15 -91 68 -197 121 -246 58 -52 154 -94 251 -110 46 -8 211 -21 368 -30 157
-8 308 -20 337 -26 68 -13 112 -44 143 -99 24 -43 25 -53 25 -195 -1 -135 -3
-155 -24 -203 -46 -103 -106 -122 -406 -129 -239 -6 -365 5 -424 35 -27 14
-45 36 -69 83 -28 55 -33 78 -39 167 l-6 102 -149 0 -148 0 0 -87 c0 -107 21
-243 48 -303 48 -110 140 -186 272 -224 161 -46 719 -47 916 -1 90 21 172 65
223 120 86 94 114 204 114 455 0 200 -19 296 -72 374 -99 144 -212 174 -766
201 -295 15 -361 42 -400 162 -13 41 -16 78 -13 170 4 137 23 187 86 227 70
46 109 51 388 51 l260 0 59 -30 c79 -40 105 -89 112 -209 l6 -86 148 0 149 0
0 98 c0 160 -43 286 -124 360 -107 99 -213 122 -571 127 -143 2 -298 -1 -345
-6z"/>
<path d="M12873 3365 c-29 -8 -70 -25 -91 -39 -39 -24 -132 -121 -132 -137 0
-5 -4 -9 -8 -9 -5 0 -5 24 -1 53 4 28 8 69 8 90 l1 37 -135 0 -135 0 0 -710 0
-711 138 3 137 3 5 515 c5 468 7 519 23 555 43 96 124 138 262 139 155 1 197
-42 203 -206 l4 -98 128 0 127 0 7 45 c3 26 1 88 -4 140 -26 250 -133 346
-384 344 -55 0 -125 -7 -153 -14z"/>
<path d="M8530 3356 c-114 -26 -215 -97 -254 -181 -9 -19 -19 -35 -22 -35 -2
0 -1 50 2 110 l7 111 -139 -3 -139 -3 -3 -707 -2 -708 139 0 140 0 3 488 3
487 34 69 c26 53 43 74 80 97 72 46 141 62 266 62 121 0 178 -12 220 -45 60
-47 60 -43 65 -623 l5 -530 138 -3 137 -3 0 559 c0 613 -2 632 -60 717 -36 52
-109 100 -193 127 -78 26 -340 35 -427 14z"/>
<path d="M9826 3354 c-153 -28 -268 -109 -320 -227 -52 -116 -61 -190 -61
-482 1 -286 7 -342 55 -467 30 -80 103 -157 179 -192 107 -48 186 -59 406 -60
282 0 395 26 488 113 84 78 113 161 119 336 l3 90 -136 3 -136 3 -6 -85 c-14
-204 -70 -242 -346 -233 -86 2 -174 10 -196 17 -56 17 -99 67 -118 137 -37
132 -45 465 -16 640 26 151 110 203 328 203 238 0 311 -47 327 -211 l7 -69
133 0 c73 0 135 3 137 8 2 4 0 50 -4 102 -23 294 -173 391 -599 389 -95 0
-198 -7 -244 -15z"/>
<path d="M11235 3359 c-97 -15 -161 -37 -207 -72 -79 -61 -103 -114 -114 -254
l-7 -83 141 0 141 0 7 61 c15 132 71 162 299 163 98 1 165 -4 194 -12 55 -17
105 -65 121 -117 17 -55 25 -408 9 -380 -60 103 -204 143 -483 132 -336 -13
-444 -93 -479 -354 -15 -114 1 -250 39 -328 62 -126 175 -177 424 -191 118 -7
271 8 343 33 56 20 108 60 149 117 l31 41 -7 -87 -6 -88 140 0 140 0 0 508 c0
279 -5 537 -10 574 -27 185 -105 274 -285 324 -70 19 -479 29 -580 13z m488
-786 c58 -27 73 -41 94 -90 20 -49 21 -176 0 -224 -38 -92 -137 -123 -376
-117 -180 5 -221 15 -259 63 -28 35 -45 126 -40 205 12 160 72 191 358 187
155 -2 180 -5 223 -24z"/>
<path d="M13870 3355 c-158 -28 -235 -77 -276 -174 -19 -44 -38 -211 -27 -222
5 -5 70 -8 144 -7 l134 3 6 62 c3 34 13 73 22 86 36 55 159 83 327 74 134 -7
176 -20 220 -66 49 -51 60 -108 60 -299 l0 -156 -24 33 c-34 46 -50 56 -136
83 -68 21 -94 23 -265 23 -153 0 -205 -4 -268 -19 -182 -45 -255 -135 -277
-344 -16 -151 16 -308 77 -378 33 -38 89 -74 145 -93 153 -53 453 -53 592 0
53 19 111 67 153 124 l22 30 -5 -55 c-3 -30 -7 -70 -9 -87 l-4 -33 140 0 139
0 0 523 c0 287 -4 548 -10 580 -29 181 -131 276 -334 312 -110 19 -437 19
-546 0z m465 -770 c83 -22 121 -54 140 -117 43 -145 -4 -265 -118 -305 -43
-15 -84 -18 -237 -18 -170 0 -189 2 -233 22 -67 31 -89 83 -90 207 -1 189 50
224 328 225 106 1 169 -4 210 -14z"/>
<path d="M6624 3344 c4 -9 17 -49 31 -88 13 -39 74 -217 135 -396 61 -179 157
-459 213 -622 l101 -298 63 0 c74 0 73 1 43 -104 -70 -245 -124 -305 -272
-306 l-68 0 0 -104 c0 -85 3 -105 16 -110 28 -11 168 -6 235 8 222 47 295 159
419 641 240 928 350 1363 350 1380 0 13 -20 15 -139 15 -77 0 -142 -3 -144 -7
-10 -17 -287 -1179 -287 -1205 0 -40 -17 -13 -39 64 -13 45 -79 258 -148 473
-68 214 -143 449 -165 520 -23 72 -46 136 -51 143 -7 8 -50 12 -154 12 -130 0
-144 -2 -139 -16z"/>
</g>
</svg>
